<svg width="430" height="2561" viewBox="0 0 430 2561" fill="none" xmlns="http://www.w3.org/2000/svg">
<path fill-rule="evenodd" clip-rule="evenodd" d="M-57.8425 0V4509.08V4509.1L-57.8438 4509.12L-216.025 6641.68L-217.022 6641.61L-58.8425 4509.08V0H-57.8425ZM-2.97919 4509.08V0H-3.97919V4509.08L-117.814 6649.49L-116.816 6649.54L-2.97989 4509.11L-2.97919 4509.09V4509.08ZM51.8802 0V4509.08V4509.09L51.8798 4509.1L-28.5824 6633.8L-29.5816 6633.76L50.8802 4509.08V0H51.8802ZM106.743 4509.08V0H105.743V4509.08L58.6549 6625.9L59.6547 6625.92L106.743 4509.09L106.743 4509.08ZM161.607 0V4509.08L161.607 4509.08L143.32 6645.58L142.32 6645.58L160.607 4509.08V0H161.607ZM215.462 4509.08V0H216.462V4509.08V6645.58H215.462V4509.08ZM270.322 4509.08V0H271.322V4509.08L289.608 6645.58L288.608 6645.58L270.322 4509.08L270.322 4509.08ZM325.185 0V4509.08L325.185 4509.09L372.274 6625.92L373.273 6625.9L326.185 4509.08V0H325.185ZM380.044 4509.08V0H381.044V4509.08L461.506 6633.76L460.507 6633.8L380.045 4509.1L380.044 4509.09V4509.08ZM434.908 0V4509.08V4509.09L434.908 4509.11L548.744 6649.54L549.743 6649.49L435.908 4509.08V0H434.908ZM489.767 4509.08V0H490.767V4509.08L648.947 6641.61L647.95 6641.68L489.768 4509.12L489.767 4509.1V4509.08Z" fill="url(#paint0_linear_70_2738)"/>
<defs>
<linearGradient id="paint0_linear_70_2738" x1="215.962" y1="0" x2="215.962" y2="6649.54" gradientUnits="userSpaceOnUse">
<stop stop-color="#171919"/>
<stop offset="0.489999" stop-color="#2B2E2E"/>
<stop offset="1" stop-color="#171919"/>
</linearGradient>
</defs>
</svg>
