<svg width="1600" height="1632" viewBox="0 0 1600 1632" fill="none" xmlns="http://www.w3.org/2000/svg">
<path fill-rule="evenodd" clip-rule="evenodd" d="M200.917 0V1070.59C200.917 1094.22 193.969 1117.33 180.938 1137.04L-145.166 1630.34L-146 1629.79L180.104 1136.49C193.027 1116.94 199.917 1094.03 199.917 1070.59V0H200.917ZM320.917 1079.67V0H319.917V1079.67C319.917 1097.37 315.984 1114.86 308.401 1130.85L70.9653 1631.79L71.8689 1632.21L309.305 1131.28C316.951 1115.15 320.917 1097.52 320.917 1079.67ZM440.917 0V1082.04C440.917 1098.4 438.248 1114.66 433.014 1130.17L264.891 1628.3L263.943 1627.98L432.067 1129.85C437.266 1114.44 439.917 1098.3 439.917 1082.04V0H440.917ZM560.917 1094.3V0H559.917V1094.3C559.917 1102.49 559.115 1110.67 557.521 1118.71L456.927 1626.11L457.908 1626.3L558.502 1118.9C560.108 1110.8 560.917 1102.56 560.917 1094.3ZM680.917 0V1106.67V1106.69L680.916 1106.71L640.916 1631.07L639.919 1631L679.917 1106.67V1106.65V0H680.917ZM799.917 1106.67V0H800.917V1106.67V1631.03H799.917V1106.67ZM919.917 1106.67V0H920.917V1106.65V1106.67L960.916 1631L959.919 1631.07L919.919 1106.71L919.917 1106.69V1106.67ZM1039.92 0V1094.3C1039.92 1102.56 1040.73 1110.8 1042.33 1118.9L1142.93 1626.3L1143.91 1626.11L1043.31 1118.71C1041.72 1110.67 1040.92 1102.49 1040.92 1094.3V0H1039.92ZM1159.92 1082.04V0H1160.92V1082.04C1160.92 1098.3 1163.57 1114.44 1168.77 1129.85L1336.89 1627.98L1335.94 1628.3L1167.82 1130.17C1162.59 1114.66 1159.92 1098.4 1159.92 1082.04ZM1279.92 0V1079.67C1279.92 1097.52 1283.88 1115.15 1291.53 1131.28L1528.97 1632.21L1529.87 1631.79L1292.43 1130.85C1284.85 1114.86 1280.92 1097.37 1280.92 1079.67V0H1279.92ZM1399.92 1070.59V0H1400.92V1070.59C1400.92 1094.03 1407.81 1116.94 1420.73 1136.49L1746.83 1629.79L1746 1630.34L1419.9 1137.04C1406.86 1117.33 1399.92 1094.22 1399.92 1070.59Z" fill="url(#paint0_linear_70_2404)"/>
<defs>
<linearGradient id="paint0_linear_70_2404" x1="800.417" y1="0" x2="800.417" y2="1632.21" gradientUnits="userSpaceOnUse">
<stop stop-color="#171919"/>
<stop offset="0.489999" stop-color="#2B2E2E"/>
<stop offset="1" stop-color="#171919"/>
</linearGradient>
</defs>
</svg>
