<svg width="1600" height="4525" viewBox="0 0 1600 4525" fill="none" xmlns="http://www.w3.org/2000/svg">
<path fill-rule="evenodd" clip-rule="evenodd" d="M200.99 0V3653.88C200.99 3661.8 200.21 3669.7 198.66 3677.47L-145.019 5399.55L-146 5399.35L197.679 3677.27C199.216 3669.57 199.99 3661.74 199.99 3653.88V0H200.99ZM320.99 3657.2V0H319.99V3657.2C319.99 3662.86 319.588 3668.52 318.785 3674.13L70.9952 5405.78L71.9852 5405.92L319.775 3674.27C320.584 3668.61 320.99 3662.91 320.99 3657.2ZM440.99 0V3665.74V3665.77L440.988 3665.79L264.988 5393.1L263.993 5393L439.99 3665.74V0H440.99ZM560.99 3665.74V0H559.99V3665.74L456.991 5386.62L457.989 5386.68L560.989 3665.77L560.99 3665.75V3665.74ZM680.99 0V3665.74L680.99 3665.75L640.99 5402.66L639.99 5402.64L679.99 3665.74V0H680.99ZM799.99 3665.74V0H800.99V3665.74V5402.65H799.99V3665.74ZM919.99 3665.74V0H920.99V3665.74L960.99 5402.64L959.99 5402.66L919.99 3665.75L919.99 3665.74ZM1039.99 0V3665.74V3665.75L1039.99 3665.77L1142.99 5386.68L1143.99 5386.62L1040.99 3665.74V0H1039.99ZM1159.99 3665.74V0H1160.99V3665.74L1336.99 5393L1335.99 5393.1L1159.99 3665.79L1159.99 3665.77V3665.74ZM1279.99 0V3657.2C1279.99 3662.91 1280.4 3668.61 1281.21 3674.27L1529 5405.92L1529.99 5405.78L1282.2 3674.13C1281.39 3668.52 1280.99 3662.86 1280.99 3657.2V0H1279.99ZM1399.99 3653.88V0H1400.99V3653.88C1400.99 3661.74 1401.76 3669.57 1403.3 3677.27L1746.98 5399.35L1746 5399.55L1402.32 3677.47C1400.77 3669.7 1399.99 3661.8 1399.99 3653.88Z" fill="url(#paint0_linear_40_2927)"/>
<defs>
<linearGradient id="paint0_linear_40_2927" x1="800.49" y1="0" x2="800.49" y2="5405.92" gradientUnits="userSpaceOnUse">
<stop stop-color="#171919"/>
<stop offset="0.489999" stop-color="#2B2E2E"/>
<stop offset="1" stop-color="#171919"/>
</linearGradient>
</defs>
</svg>
