<svg width="16" height="32" viewBox="0 0 16 32" fill="none" xmlns="http://www.w3.org/2000/svg">
<path d="M8.70711 0.292893C8.31658 -0.0976311 7.68342 -0.0976311 7.29289 0.292893L0.928932 6.65685C0.538408 7.04738 0.538408 7.68054 0.928932 8.07107C1.31946 8.46159 1.95262 8.46159 2.34315 8.07107L8 2.41421L13.6569 8.07107C14.0474 8.46159 14.6805 8.46159 15.0711 8.07107C15.4616 7.68054 15.4616 7.04738 15.0711 6.65685L8.70711 0.292893ZM7.29289 31.7071C7.68342 32.0976 8.31658 32.0976 8.70711 31.7071L15.0711 25.3431C15.4616 24.9526 15.4616 24.3195 15.0711 23.9289C14.6805 23.5384 14.0474 23.5384 13.6569 23.9289L8 29.5858L2.34314 23.9289C1.95262 23.5384 1.31946 23.5384 0.928931 23.9289C0.538407 24.3195 0.538407 24.9526 0.928931 25.3431L7.29289 31.7071ZM7 1L7 31L9 31L9 1L7 1Z" fill="white"/>
</svg>
