<svg width="16" height="37" viewBox="0 0 16 37" fill="none" xmlns="http://www.w3.org/2000/svg">
<path d="M7.29289 16.7071C7.68342 17.0976 8.31658 17.0976 8.70711 16.7071L15.0711 10.3431C15.4616 9.95262 15.4616 9.31946 15.0711 8.92893C14.6805 8.53841 14.0474 8.53841 13.6569 8.92893L8 14.5858L2.34315 8.92893C1.95262 8.53841 1.31946 8.53841 0.928932 8.92893C0.538407 9.31946 0.538407 9.95262 0.928932 10.3431L7.29289 16.7071ZM7 -6.55671e-08L7 16L9 16L9 6.55671e-08L7 -6.55671e-08Z" fill="white"/>
<path d="M8.70711 20.2929C8.31658 19.9024 7.68342 19.9024 7.29289 20.2929L0.928932 26.6569C0.538407 27.0474 0.538407 27.6805 0.928932 28.0711C1.31946 28.4616 1.95262 28.4616 2.34315 28.0711L8 22.4142L13.6569 28.0711C14.0474 28.4616 14.6805 28.4616 15.0711 28.0711C15.4616 27.6805 15.4616 27.0474 15.0711 26.6569L8.70711 20.2929ZM9 37L9 21L7 21L7 37L9 37Z" fill="white"/>
</svg>
