<svg width="52" height="16" viewBox="0 0 52 16" fill="none" xmlns="http://www.w3.org/2000/svg">
<path d="M45 5L40.2265 15L51.7735 15L47 5L45 5Z" fill="white"/>
<path d="M5 5L0.226498 15L11.7735 15L7 5L5 5Z" fill="white"/>
<path d="M38.7071 8.70711C39.0976 8.31658 39.0976 7.68342 38.7071 7.29289L32.3431 0.928932C31.9526 0.538408 31.3195 0.538408 30.9289 0.928932C30.5384 1.31946 30.5384 1.95262 30.9289 2.34315L36.5858 8L30.9289 13.6569C30.5384 14.0474 30.5384 14.6805 30.9289 15.0711C31.3195 15.4616 31.9526 15.4616 32.3431 15.0711L38.7071 8.70711ZM12.2929 7.29289C11.9024 7.68342 11.9024 8.31658 12.2929 8.70711L18.6569 15.0711C19.0474 15.4616 19.6805 15.4616 20.0711 15.0711C20.4616 14.6805 20.4616 14.0474 20.0711 13.6569L14.4142 8L20.0711 2.34315C20.4616 1.95262 20.4616 1.31946 20.0711 0.928932C19.6805 0.538408 19.0474 0.538408 18.6569 0.928932L12.2929 7.29289ZM38 7L13 7V9L38 9V7Z" fill="white"/>
</svg>
