<svg width="30" height="26" viewBox="0 0 30 26" fill="none" xmlns="http://www.w3.org/2000/svg">
<path d="M11.528 26.0004C11.9239 25.7667 12.2559 25.5717 12.6518 25.338C11.8643 23.9386 11.1189 22.5586 10.3139 21.2143C10.0315 20.7424 10.0548 20.4 10.3299 19.9459C10.9806 18.8726 11.5542 17.7501 12.2107 16.6797C12.3563 16.4415 12.71 16.2078 12.9764 16.1974C14.3099 16.1483 15.6463 16.1527 16.9812 16.1944C17.2272 16.2019 17.562 16.4133 17.6931 16.6321C18.4166 17.835 19.1022 19.0602 19.7719 20.2943C20.1271 20.9478 20.5376 21.32 21.3601 21.2664C22.7139 21.1786 24.078 21.2604 25.4362 21.2322C25.8598 21.2232 26.0883 21.3721 26.2907 21.7428C27.0564 23.1466 27.8556 24.5326 28.6694 25.9751C29.0406 25.7667 29.3711 25.5821 29.7859 25.3484C29.0683 24.0711 28.4175 22.8057 27.6606 21.6103C27.2471 20.9582 27.2631 20.4699 27.6635 19.8283C28.419 18.618 29.0755 17.3437 29.799 16.1125C30.032 15.7166 30.0873 15.4099 29.8296 14.9752C28.911 13.4299 28.0565 11.846 27.1481 10.2947C27.0215 10.0789 26.742 9.82431 26.5251 9.81687C25.2658 9.77221 24.0052 9.79454 22.7168 9.79454V11.1239C23.6296 11.1239 24.5613 11.1492 25.49 11.1135C25.9559 11.0957 26.2383 11.2222 26.4712 11.6643C27.0797 12.8196 27.7625 13.9331 28.3695 15.0898C28.4874 15.3131 28.4961 15.7091 28.3797 15.9294C27.7508 17.1308 27.087 18.3128 26.3882 19.471C26.2572 19.6899 25.9137 19.8908 25.6633 19.8983C24.3298 19.94 22.9934 19.94 21.6585 19.8983C21.4052 19.8908 21.0587 19.7033 20.9277 19.4874C20.2246 18.3307 19.5579 17.1487 18.9261 15.9503C18.8082 15.7255 18.8111 15.328 18.9261 15.0973C19.3526 14.2398 19.8505 13.4195 20.3134 12.5977C19.9189 12.3744 19.5637 12.1735 19.1284 11.9263C18.6902 12.696 18.2142 13.491 17.7819 14.3112C17.5751 14.7042 17.3379 14.874 16.8808 14.862C15.5953 14.8263 14.307 14.8308 13.0216 14.8606C12.5965 14.871 12.365 14.7191 12.1656 14.3484C11.5454 13.1992 10.9006 12.0633 10.2426 10.9364C10.0519 10.6074 10.0082 10.3573 10.2207 10.0015C10.902 8.85964 11.5178 7.67762 12.2093 6.54323C12.3534 6.30802 12.7144 6.08621 12.9837 6.07727C14.3172 6.02964 15.6536 6.03261 16.9885 6.07579C17.2345 6.08323 17.562 6.29462 17.7003 6.51346C18.2113 7.31735 18.6582 8.16442 19.1313 8.99809C19.5186 8.76138 19.8447 8.5619 20.2231 8.33115C19.8534 7.67166 19.5244 6.97942 19.0979 6.35864C18.6408 5.69319 18.6102 5.15726 19.0746 4.44269C19.8519 3.25174 20.4954 1.96997 21.2349 0.655458C20.8666 0.436621 20.5259 0.235647 20.1314 0.00192261C19.3235 1.43107 18.5301 2.78875 17.7862 4.17324C17.5562 4.60198 17.2986 4.75383 16.8225 4.74192C15.3668 4.70768 13.9096 4.75383 12.4538 4.71661C11.9298 4.70321 11.6284 4.85208 11.3708 5.34186C10.6705 6.67126 9.89172 7.95898 9.16967 9.27796C8.97169 9.63971 8.76207 9.81687 8.32971 9.80645C7.01954 9.77518 5.70791 9.77518 4.39774 9.80645C3.96684 9.81687 3.7543 9.65162 3.55195 9.28243C2.78623 7.88157 1.98411 6.50006 1.1689 5.06496C0.783125 5.29273 0.451216 5.48775 0.0668983 5.71403C0.853001 7.10894 1.60853 8.48895 2.40628 9.84217C2.66249 10.2754 2.69015 10.5984 2.42084 11.0495C1.62309 12.3804 0.874838 13.7411 0.12804 15.1032C0.0261383 15.2878 -0.0510178 15.6019 0.0334148 15.7612C0.631725 16.8911 1.27371 17.9943 1.91715 19.1331C2.28691 18.9113 2.613 18.7163 3.01333 18.4766C2.54894 17.6444 2.10494 16.8033 1.6129 15.9934C1.40327 15.6481 1.4091 15.4024 1.6129 15.0571C2.29128 13.9137 2.90851 12.7332 3.60145 11.6003C3.74411 11.3681 4.11096 11.1582 4.38173 11.1492C5.69044 11.1031 7.00352 11.1031 8.31224 11.1492C8.58155 11.1597 8.94258 11.377 9.0867 11.6122C9.78254 12.7451 10.4405 13.9033 11.0549 15.0824C11.1801 15.322 11.1684 15.7508 11.0403 15.9964C10.4362 17.1546 9.75197 18.2682 9.13619 19.4189C8.93384 19.7956 8.70675 19.9474 8.28458 19.934C7.36892 19.9028 6.45325 19.9236 5.50993 19.9236V21.247C6.43724 21.247 7.3529 21.2679 8.26566 21.2381C8.68491 21.2247 8.91201 21.3676 9.11872 21.7487C9.88299 23.1555 10.6895 24.5371 11.5222 26.0034L11.528 26.0004Z" fill="white"/>
<path d="M4.76753 20.5573C4.75297 19.7892 4.22308 19.2681 3.46464 19.2771C2.74404 19.2845 2.16466 19.871 2.1632 20.5916C2.16174 21.321 2.8212 21.9656 3.53451 21.9329C4.25365 21.9001 4.78209 21.3106 4.76753 20.5558V20.5573Z" fill="white"/>
<path d="M20.7269 11.777C21.4533 11.7577 21.9978 11.1756 21.9876 10.4313C21.9774 9.7018 21.3922 9.10781 20.6891 9.11079C19.9495 9.11526 19.3629 9.74646 19.392 10.5072C19.4211 11.2471 19.9976 11.7949 20.7269 11.7755V11.777Z" fill="white"/>
</svg>
