<svg width="38" height="16" viewBox="0 0 38 16" fill="none" xmlns="http://www.w3.org/2000/svg">
<path d="M31.9457 15.9916C31.9457 14.2265 31.9457 12.4948 31.9457 10.7298C28.399 10.7298 24.8689 10.7298 21.2888 10.7298C21.2888 12.4698 21.2888 14.2266 21.2888 15.9999C19.4988 15.9999 17.7587 15.9999 15.9687 15.9999C15.9687 14.2432 15.9687 12.4948 15.9687 10.7214C12.3886 10.7214 8.85855 10.7214 5.29515 10.7214C5.29515 12.4865 5.29515 14.2266 5.29515 15.9999C3.52177 15.9999 1.7817 15.9999 0 15.9999C0 13.3773 0 10.7381 0 8.07385C12.4053 8.07385 24.8023 8.07385 37.2242 8.07385C37.2242 10.7048 37.2242 13.3357 37.2242 15.9999C35.4925 15.9916 33.7441 15.9916 31.9457 15.9916Z" fill="white"/>
<path d="M16.1434 0.0479635C15.6272 2.2959 15.1194 4.47724 14.6115 6.67523C12.4219 6.67523 10.2405 6.67523 8.02588 6.67523C8.07583 6.56699 8.10914 6.47541 8.15909 6.39215C9.39962 4.369 10.6402 2.35418 11.889 0.339363C11.9639 0.214478 12.1221 0.0646134 12.247 0.0646134C13.5208 0.0396363 14.7947 0.0479635 16.1434 0.0479635Z" fill="white"/>
<path d="M21.0891 0.0478516C22.4295 0.0478516 23.7117 0.0478521 25.0022 0.0561778C25.0938 0.0561778 25.2103 0.131108 25.2603 0.206039C26.5841 2.33742 27.8912 4.47713 29.24 6.65846C27.017 6.65846 24.8357 6.65846 22.6127 6.65846C22.1132 4.48545 21.6053 2.28747 21.0891 0.0478516Z" fill="white"/>
<path d="M11.2148 0.0478516C10.4655 1.13019 9.77445 2.12928 9.08342 3.12836C8.32578 4.21903 7.57646 5.31802 6.80217 6.40869C6.71059 6.53358 6.53575 6.68344 6.39421 6.68344C4.31279 6.70009 2.21471 6.70009 0.0583496 6.70009C0.141607 6.59186 0.183235 6.51692 0.241515 6.45864C2.46448 4.39387 4.68744 2.32077 6.91873 0.26432C7.01864 0.164412 7.17683 0.0645014 7.30171 0.0645014C8.58387 0.04785 9.85771 0.0478516 11.2148 0.0478516Z" fill="white"/>
<path d="M37.1993 6.70017C36.7414 6.70017 36.3584 6.70017 35.9754 6.70017C34.2936 6.70017 32.6202 6.70849 30.9384 6.69184C30.7802 6.69184 30.5554 6.60026 30.4638 6.46705C29.0234 4.4106 27.5998 2.34582 26.1761 0.281047C26.1428 0.231093 26.1095 0.164488 26.0428 0.0479282C26.8504 0.0479282 27.6164 0.122859 28.3574 0.0312758C29.6062 -0.126913 30.4971 0.322676 31.3796 1.2052C33.128 2.96193 34.993 4.60209 36.8163 6.29221C36.9245 6.40044 37.0245 6.517 37.1993 6.70017Z" fill="white"/>
<path d="M15.9688 6.66693C16.3101 4.46062 16.6431 2.27929 16.9845 0.0812988C18.0668 0.0812988 19.1408 0.0812988 20.2565 0.0812988C20.5895 2.26263 20.9309 4.44397 21.2722 6.66693C19.4988 6.66693 17.7505 6.66693 15.9688 6.66693Z" fill="white"/>
</svg>
