<svg width="12" height="16" viewBox="0 0 12 16" fill="none" xmlns="http://www.w3.org/2000/svg">
<path d="M6 0C4.4087 0 2.88258 0.676994 1.75736 1.88205C0.63214 3.0871 0 4.7215 0 6.4257C0 9.48038 3.09231 13.148 5.69077 15.6886L6.00923 16L6.31846 15.6787C9.19385 12.713 12 9.56441 12 6.4257C12 5.58187 11.8448 4.7463 11.5433 3.96669C11.2418 3.18709 10.7998 2.47873 10.2426 1.88205C9.68549 1.28537 9.02405 0.812048 8.2961 0.489126C7.56815 0.166204 6.78793 0 6 0ZM6 8.89713C5.54358 8.89713 5.09741 8.75218 4.71791 8.48062C4.33842 8.20905 4.04263 7.82307 3.86797 7.37148C3.69331 6.91989 3.64761 6.42296 3.73665 5.94355C3.82569 5.46414 4.04548 5.02378 4.36821 4.67815C4.69095 4.33251 5.10214 4.09713 5.54979 4.00176C5.99744 3.9064 6.46144 3.95534 6.88311 4.1424C7.30479 4.32945 7.6652 4.64622 7.91878 5.05265C8.17235 5.45907 8.30769 5.9369 8.30769 6.4257C8.30769 7.08117 8.06456 7.70978 7.63179 8.17326C7.19901 8.63674 6.61204 8.89713 6 8.89713Z" fill="#191919"/>
</svg>
